<svg width="22" height="22" viewBox="0 0 22 22" fill="none" xmlns="http://www.w3.org/2000/svg">
<rect width="22" height="22" rx="11" fill="#9D9D9D"/>
<path d="M9.46153 13.1739L11.6334 13.7951C11.6334 13.7951 17.063 12.8633 17.787 12.8633C18.5109 12.8633 18.5109 13.4845 17.787 14.1057C17.063 14.7268 14.5292 16.5904 12.3573 16.5904C10.1855 16.5904 8.73758 15.6586 7.28967 15.6586H3.66992" stroke="white" stroke-width="2" stroke-linecap="round" stroke-linejoin="round"/>
<path d="M3.66992 11.9326C4.39387 11.3114 5.84177 10.3796 7.28967 10.3796C8.73758 10.3796 12.1763 11.622 12.7193 12.2432C13.2623 12.8644 11.6334 13.7961 11.6334 13.7961M8.01363 8.51608V6.03134C8.01363 5.86659 8.0899 5.70859 8.22567 5.5921C8.36143 5.4756 8.54557 5.41016 8.73758 5.41016H17.425C17.617 5.41016 17.8011 5.4756 17.9369 5.5921C18.0727 5.70859 18.1489 5.86659 18.1489 6.03134V11.0008" stroke="white" stroke-width="2" stroke-linecap="round" stroke-linejoin="round"/>
<path d="M11.2705 5.41016H14.8903V8.20549H11.2705V5.41016Z" stroke="white" stroke-width="2" stroke-linecap="round" stroke-linejoin="round"/>
</svg>
